<?xml version="1.0" standalone="no"?>
<!DOCTYPE svg PUBLIC "-//W3C//DTD SVG 20010904//EN"
 "http://www.w3.org/TR/2001/REC-SVG-20010904/DTD/svg10.dtd">
<svg version="1.0" xmlns="http://www.w3.org/2000/svg"
 width="256.000000pt" height="256.000000pt" viewBox="0 0 256.000000 256.000000"
 preserveAspectRatio="xMidYMid meet">

<g transform="translate(0.000000,256.000000) scale(0.100000,-0.100000)"
fill="#3b5998" stroke="none">
<path d="M90 2538 c-33 -17 -51 -35 -67 -68 l-23 -44 0 -1146 0 -1146 22 -44
c17 -33 35 -51 68 -68 l44 -22 613 0 613 0 0 480 0 480 -160 0 -160 0 0 200 0
200 159 0 159 0 4 198 c4 180 7 203 30 270 59 166 164 270 317 316 42 12 100
16 253 16 l198 0 0 -199 0 -198 -122 -5 c-98 -4 -131 -9 -163 -25 -85 -44
-107 -92 -113 -250 l-5 -123 202 0 c154 0 201 -3 201 -12 -1 -7 -18 -96 -38
-198 l-38 -185 -162 -3 -162 -2 0 -480 0 -480 333 0 c325 0 334 1 377 22 33
17 51 35 68 68 l22 44 0 1146 0 1146 -22 44 c-17 33 -35 51 -68 68 l-44 22
-1146 0 -1146 0 -44 -22z"/>
</g>
</svg>
